<svg width="249" height="54" viewBox="0 0 249 54" fill="none" xmlns="http://www.w3.org/2000/svg">
<path fill-rule="evenodd" clip-rule="evenodd" d="M10.8319 32.3671L8.40414 36.7375L8.40374 51.4193H0.54947L0.550766 3.61813H8.40504L8.40447 24.4458L18.687 3.61813H26.5413L15.6161 24.9238L26.54 51.4193H18.4715L10.8319 32.3671ZM37.6287 40.425C37.6287 42.1549 37.9975 43.3727 38.7353 44.0784C39.4732 44.784 40.4609 45.1368 41.6985 45.1368C42.9362 45.1368 43.9239 44.784 44.6618 44.0784C45.3996 43.3727 45.7685 42.1549 45.7686 40.425L45.7693 14.6123C45.7693 12.8824 45.4005 11.6646 44.6627 10.959C43.9248 10.2533 42.9371 9.90051 41.6995 9.90051C40.4618 9.90051 39.4741 10.2533 38.7362 10.959C37.9984 11.6646 37.6295 12.8824 37.6294 14.6123L37.6287 40.425ZM29.7744 15.0905C29.7745 11.2208 30.798 8.25037 32.845 6.17898C34.8919 4.10758 37.8432 3.0719 41.6989 3.0719C45.5547 3.0719 48.5059 4.10758 50.5528 6.17898C52.5996 8.25037 53.6229 11.2208 53.6228 15.0905L53.6222 39.9471C53.6221 43.8167 52.5986 46.7872 50.5516 48.8586C48.5047 50.93 45.5534 51.9657 41.6976 51.9657C37.8419 51.9657 34.8906 50.93 32.8438 48.8586C30.797 46.7872 29.7736 43.8167 29.7737 39.9471L29.7744 15.0905ZM66.4957 16.7978L66.4948 51.4195H59.4259L59.4272 3.61829H69.2808L77.3485 32.2307L77.3492 3.61829H84.3467L84.3454 51.4195H76.2769L66.4957 16.7978ZM89.7936 15.0905C89.7937 11.2208 90.7577 8.25037 92.6857 6.17898C94.6136 4.10758 97.5054 3.0719 101.361 3.0719C105.217 3.0719 108.109 4.10758 110.036 6.17898C111.964 8.25037 112.928 11.2208 112.928 15.0905L112.928 16.5928H105.502L105.502 14.6125C105.502 12.8825 105.157 11.6647 104.467 10.9591C103.777 10.2535 102.813 9.90064 101.575 9.90064C100.338 9.90064 99.3736 10.2535 98.6834 10.9591C97.9931 11.6647 97.648 12.8825 97.6479 14.6125C97.6479 16.2514 98.0286 17.6968 98.7902 18.9487C99.5518 20.2007 100.504 21.3843 101.646 22.4997C102.789 23.615 104.014 24.7304 105.323 25.8458C106.632 26.9611 107.858 28.1789 109.001 29.4991C110.143 30.8194 111.095 32.3217 111.856 34.0061C112.618 35.6905 112.999 37.6708 112.999 39.9471C112.999 43.8167 112.011 46.7872 110.035 48.8586C108.06 50.93 105.144 51.9657 101.288 51.9657C97.4327 51.9657 94.5171 50.93 92.5417 48.8586C90.5663 46.7872 89.5786 43.8167 89.5787 39.9471L89.5788 37.0107H97.0047L97.0046 40.4251C97.0045 42.1551 97.3734 43.3615 98.1112 44.0443C98.849 44.7272 99.8368 45.0687 101.074 45.0687C102.312 45.0687 103.3 44.7272 104.038 44.0443C104.775 43.3615 105.144 42.1551 105.144 40.4251C105.145 38.7862 104.764 37.3408 104.002 36.0889C103.241 34.8369 102.289 33.6533 101.146 32.5379C100.004 31.4226 98.778 30.3072 97.469 29.1918C96.16 28.0765 94.9343 26.8587 93.7919 25.5385C92.6495 24.2182 91.6975 22.7159 90.9359 21.0315C90.1743 19.3471 89.7936 17.3667 89.7936 15.0905ZM116.019 3.61816H140.296L140.296 10.4469H132.084L132.083 51.4194H124.229L124.23 10.4469H116.019L116.019 3.61816ZM160.95 51.4192C160.855 51.1006 160.76 50.8046 160.664 50.5315C160.569 50.2583 160.486 49.9169 160.414 49.5072C160.343 49.0975 160.295 48.5739 160.272 47.9366C160.248 47.2992 160.236 46.5025 160.236 45.5465L160.236 38.0349C160.236 35.8042 159.832 34.2336 159.023 33.3231C158.213 32.4126 156.904 31.9573 155.095 31.9573H152.382L152.382 51.4192H144.527L144.529 3.61804H156.381C160.475 3.61804 163.438 4.52853 165.271 6.34954C167.104 8.17055 168.02 10.9248 168.02 14.6123L168.02 18.3681C168.02 23.2848 166.306 26.5171 162.878 28.0649C164.878 28.8389 166.246 30.1022 166.984 31.8549C167.722 33.6076 168.091 35.7359 168.091 38.2398L168.09 45.6148C168.09 46.7985 168.138 47.8341 168.233 48.7219C168.328 49.6096 168.566 50.5087 168.947 51.4192H160.95ZM152.383 10.447L152.383 25.1288H155.453C156.929 25.1288 158.083 24.7646 158.916 24.0362C159.749 23.3078 160.166 21.9876 160.166 20.0755L160.166 15.3637C160.166 13.6338 159.845 12.3818 159.202 11.6079C158.56 10.834 157.548 10.447 156.168 10.447H152.383ZM181.536 3.61829L181.535 40.4935C181.535 42.2234 181.904 43.4298 182.642 44.1127C183.379 44.7956 184.367 45.137 185.605 45.137C186.842 45.137 187.83 44.7956 188.568 44.1127C189.306 43.4298 189.675 42.2234 189.675 40.4935L189.676 3.61829H197.102L197.101 40.0155C197.101 43.8851 196.113 46.8556 194.137 48.927C192.162 50.9984 189.246 52.0341 185.39 52.0341C181.535 52.0341 178.619 50.9984 176.644 48.927C174.668 46.8556 173.681 43.8851 173.681 40.0155L173.682 3.61829H181.536ZM224.724 3.61829H249.001L249.001 10.447H240.789L240.788 51.4195H232.934L232.935 10.447H224.724L224.724 3.61829Z" fill="#1A1A1A"/>
<path fill-rule="evenodd" clip-rule="evenodd" d="M199.954 27L219.497 0L219.496 54L199.954 27Z" fill="#1A1A1A"/>
</svg>
